<mxfile host="app.diagrams.net" modified="2022-11-22T02:53:04.530Z" agent="5.0 (Windows NT 10.0; Win64; x64) AppleWebKit/537.36 (KHTML, like Gecko) Chrome/103.0.0.0 Safari/537.36" etag="11nDtnA3KzMFjpw4GOtr" version="20.5.1" type="github">
  <diagram id="RoU__FsvneReP1gIZXwm" name="Page-1">
    <mxGraphModel dx="1422" dy="1931" grid="1" gridSize="10" guides="1" tooltips="1" connect="1" arrows="1" fold="1" page="1" pageScale="1" pageWidth="827" pageHeight="1169" background="#F1FAEE" math="0" shadow="0">
      <root>
        <mxCell id="0" />
        <mxCell id="1" parent="0" />
        <mxCell id="v9gRxfP-HKsxjnFTEKJX-4" value="datanode" style="html=1;fontStyle=1;align=left;verticalAlign=top;spacing=0;labelBorderColor=none;fillColor=#d5e8d4;dashed=1;strokeWidth=2;strokeColor=#82b366;spacingLeft=4;spacingTop=-3;" parent="1" vertex="1">
          <mxGeometry x="300" y="-90" width="330" height="420" as="geometry" />
        </mxCell>
        <mxCell id="v9gRxfP-HKsxjnFTEKJX-82" value="ambari2&lt;br&gt;统一kerberos&amp;nbsp;认证，&lt;br&gt;ranger权限管理，&lt;br&gt;ns互访" style="rounded=0;whiteSpace=wrap;html=1;sketch=0;strokeColor=#6c8ebf;fillColor=#dae8fc;align=center;verticalAlign=top;labelPosition=center;verticalLabelPosition=middle;labelBackgroundColor=none;horizontal=1;" parent="1" vertex="1">
          <mxGeometry x="80" y="150" width="200" height="409" as="geometry" />
        </mxCell>
        <mxCell id="v9gRxfP-HKsxjnFTEKJX-32" value="" style="group;fontColor=#1D3557;" parent="1" vertex="1" connectable="0">
          <mxGeometry x="371" y="17" width="160" height="180" as="geometry" />
        </mxCell>
        <mxCell id="v9gRxfP-HKsxjnFTEKJX-17" value="dn" style="shape=cylinder3;whiteSpace=wrap;html=1;boundedLbl=1;backgroundOutline=1;size=15;fillColor=#A8DADC;strokeColor=#457B9D;fontColor=#1D3557;" parent="v9gRxfP-HKsxjnFTEKJX-32" vertex="1">
          <mxGeometry width="60" height="80" as="geometry" />
        </mxCell>
        <mxCell id="v9gRxfP-HKsxjnFTEKJX-18" value="dn" style="shape=cylinder3;whiteSpace=wrap;html=1;boundedLbl=1;backgroundOutline=1;size=15;fillColor=#A8DADC;strokeColor=#457B9D;fontColor=#1D3557;" parent="v9gRxfP-HKsxjnFTEKJX-32" vertex="1">
          <mxGeometry x="10" y="10" width="60" height="80" as="geometry" />
        </mxCell>
        <mxCell id="v9gRxfP-HKsxjnFTEKJX-19" value="dn" style="shape=cylinder3;whiteSpace=wrap;html=1;boundedLbl=1;backgroundOutline=1;size=15;fillColor=#A8DADC;strokeColor=#457B9D;fontColor=#1D3557;" parent="v9gRxfP-HKsxjnFTEKJX-32" vertex="1">
          <mxGeometry x="20" y="20" width="60" height="80" as="geometry" />
        </mxCell>
        <mxCell id="v9gRxfP-HKsxjnFTEKJX-20" value="dn" style="shape=cylinder3;whiteSpace=wrap;html=1;boundedLbl=1;backgroundOutline=1;size=15;fillColor=#A8DADC;strokeColor=#457B9D;fontColor=#1D3557;" parent="v9gRxfP-HKsxjnFTEKJX-32" vertex="1">
          <mxGeometry x="30" y="30" width="60" height="80" as="geometry" />
        </mxCell>
        <mxCell id="v9gRxfP-HKsxjnFTEKJX-21" value="dn" style="shape=cylinder3;whiteSpace=wrap;html=1;boundedLbl=1;backgroundOutline=1;size=15;fillColor=#A8DADC;strokeColor=#457B9D;fontColor=#1D3557;" parent="v9gRxfP-HKsxjnFTEKJX-32" vertex="1">
          <mxGeometry x="40" y="40" width="60" height="80" as="geometry" />
        </mxCell>
        <mxCell id="v9gRxfP-HKsxjnFTEKJX-22" value="dn" style="shape=cylinder3;whiteSpace=wrap;html=1;boundedLbl=1;backgroundOutline=1;size=15;fillColor=#A8DADC;strokeColor=#457B9D;fontColor=#1D3557;" parent="v9gRxfP-HKsxjnFTEKJX-32" vertex="1">
          <mxGeometry x="50" y="50" width="60" height="80" as="geometry" />
        </mxCell>
        <mxCell id="v9gRxfP-HKsxjnFTEKJX-23" value="dn" style="shape=cylinder3;whiteSpace=wrap;html=1;boundedLbl=1;backgroundOutline=1;size=15;fillColor=#A8DADC;strokeColor=#457B9D;fontColor=#1D3557;" parent="v9gRxfP-HKsxjnFTEKJX-32" vertex="1">
          <mxGeometry x="60" y="60" width="60" height="80" as="geometry" />
        </mxCell>
        <mxCell id="v9gRxfP-HKsxjnFTEKJX-24" value="dn" style="shape=cylinder3;whiteSpace=wrap;html=1;boundedLbl=1;backgroundOutline=1;size=15;fillColor=#A8DADC;strokeColor=#457B9D;fontColor=#1D3557;" parent="v9gRxfP-HKsxjnFTEKJX-32" vertex="1">
          <mxGeometry x="70" y="70" width="60" height="80" as="geometry" />
        </mxCell>
        <mxCell id="v9gRxfP-HKsxjnFTEKJX-25" value="dn" style="shape=cylinder3;whiteSpace=wrap;html=1;boundedLbl=1;backgroundOutline=1;size=15;fillColor=#A8DADC;strokeColor=#457B9D;fontColor=#1D3557;" parent="v9gRxfP-HKsxjnFTEKJX-32" vertex="1">
          <mxGeometry x="80" y="80" width="60" height="80" as="geometry" />
        </mxCell>
        <mxCell id="v9gRxfP-HKsxjnFTEKJX-26" value="dn" style="shape=cylinder3;whiteSpace=wrap;html=1;boundedLbl=1;backgroundOutline=1;size=15;fillColor=#A8DADC;strokeColor=#457B9D;fontColor=#1D3557;" parent="v9gRxfP-HKsxjnFTEKJX-32" vertex="1">
          <mxGeometry x="90" y="90" width="60" height="80" as="geometry" />
        </mxCell>
        <mxCell id="v9gRxfP-HKsxjnFTEKJX-27" value="dn" style="shape=cylinder3;whiteSpace=wrap;html=1;boundedLbl=1;backgroundOutline=1;size=15;fillColor=#A8DADC;strokeColor=#457B9D;fontColor=#1D3557;" parent="v9gRxfP-HKsxjnFTEKJX-32" vertex="1">
          <mxGeometry x="100" y="100" width="60" height="80" as="geometry" />
        </mxCell>
        <mxCell id="hNwEJR6aLsFTi0P1yOYz-13" style="edgeStyle=orthogonalEdgeStyle;rounded=0;orthogonalLoop=1;jettySize=auto;html=1;exitX=1;exitY=0.5;exitDx=0;exitDy=0;entryX=-0.006;entryY=0.929;entryDx=0;entryDy=0;entryPerimeter=0;" edge="1" parent="1" source="v9gRxfP-HKsxjnFTEKJX-55" target="v9gRxfP-HKsxjnFTEKJX-4">
          <mxGeometry relative="1" as="geometry" />
        </mxCell>
        <mxCell id="v9gRxfP-HKsxjnFTEKJX-55" value="ns-cluster04" style="rounded=1;whiteSpace=wrap;html=1;fillColor=#f5f5f5;strokeColor=#666666;fontColor=#333333;" parent="1" vertex="1">
          <mxGeometry x="130" y="315" width="120" height="60" as="geometry" />
        </mxCell>
        <mxCell id="hNwEJR6aLsFTi0P1yOYz-10" style="edgeStyle=orthogonalEdgeStyle;rounded=0;orthogonalLoop=1;jettySize=auto;html=1;exitX=1;exitY=0.5;exitDx=0;exitDy=0;entryX=0;entryY=0.595;entryDx=0;entryDy=0;entryPerimeter=0;" edge="1" parent="1" source="v9gRxfP-HKsxjnFTEKJX-56" target="v9gRxfP-HKsxjnFTEKJX-4">
          <mxGeometry relative="1" as="geometry" />
        </mxCell>
        <mxCell id="v9gRxfP-HKsxjnFTEKJX-56" value="ns-cluster03" style="rounded=1;whiteSpace=wrap;html=1;fillColor=#f5f5f5;strokeColor=#666666;fontColor=#333333;" parent="1" vertex="1">
          <mxGeometry x="130" y="240" width="120" height="60" as="geometry" />
        </mxCell>
        <mxCell id="hNwEJR6aLsFTi0P1yOYz-15" style="edgeStyle=orthogonalEdgeStyle;rounded=0;orthogonalLoop=1;jettySize=auto;html=1;exitX=1;exitY=0.5;exitDx=0;exitDy=0;" edge="1" parent="1" source="v9gRxfP-HKsxjnFTEKJX-57" target="v9gRxfP-HKsxjnFTEKJX-61">
          <mxGeometry relative="1" as="geometry" />
        </mxCell>
        <mxCell id="v9gRxfP-HKsxjnFTEKJX-57" value="ns-cluster06&lt;br&gt;独立DN集群" style="rounded=1;whiteSpace=wrap;html=1;fillColor=#f5f5f5;strokeColor=#666666;fontColor=#333333;" parent="1" vertex="1">
          <mxGeometry x="130" y="470" width="120" height="60" as="geometry" />
        </mxCell>
        <mxCell id="hNwEJR6aLsFTi0P1yOYz-14" style="edgeStyle=orthogonalEdgeStyle;rounded=0;orthogonalLoop=1;jettySize=auto;html=1;exitX=1;exitY=0.5;exitDx=0;exitDy=0;entryX=0;entryY=0.75;entryDx=0;entryDy=0;" edge="1" parent="1" source="v9gRxfP-HKsxjnFTEKJX-58" target="v9gRxfP-HKsxjnFTEKJX-4">
          <mxGeometry relative="1" as="geometry" />
        </mxCell>
        <mxCell id="v9gRxfP-HKsxjnFTEKJX-58" value="ns-cluster05" style="rounded=1;whiteSpace=wrap;html=1;fillColor=#f5f5f5;strokeColor=#666666;fontColor=#333333;" parent="1" vertex="1">
          <mxGeometry x="130" y="390" width="120" height="60" as="geometry" />
        </mxCell>
        <mxCell id="v9gRxfP-HKsxjnFTEKJX-75" value="" style="group;fontColor=#1D3557;" parent="1" vertex="1" connectable="0">
          <mxGeometry x="380" y="350" width="330" height="210" as="geometry" />
        </mxCell>
        <mxCell id="v9gRxfP-HKsxjnFTEKJX-61" value="datanode&lt;br&gt;&lt;span style=&quot;font-weight: 400 ; text-align: center&quot;&gt;启用EC存储，主要以冷数据，或成本较高的数据存储&lt;/span&gt;" style="html=1;fontStyle=1;align=left;verticalAlign=top;spacing=0;labelBorderColor=none;fillColor=#dae8fc;dashed=1;strokeWidth=2;strokeColor=#6c8ebf;spacingLeft=4;spacingTop=-3;" parent="v9gRxfP-HKsxjnFTEKJX-75" vertex="1">
          <mxGeometry x="-80" width="330" height="210" as="geometry" />
        </mxCell>
        <mxCell id="v9gRxfP-HKsxjnFTEKJX-53" value="" style="group;fontColor=#1D3557;" parent="v9gRxfP-HKsxjnFTEKJX-75" vertex="1" connectable="0">
          <mxGeometry x="20" y="50" width="110" height="130" as="geometry" />
        </mxCell>
        <mxCell id="v9gRxfP-HKsxjnFTEKJX-46" value="" style="shape=cylinder3;whiteSpace=wrap;html=1;boundedLbl=1;backgroundOutline=1;size=15;fillColor=#A8DADC;strokeColor=#457B9D;fontColor=#1D3557;" parent="v9gRxfP-HKsxjnFTEKJX-53" vertex="1">
          <mxGeometry width="60" height="80" as="geometry" />
        </mxCell>
        <mxCell id="v9gRxfP-HKsxjnFTEKJX-47" value="" style="shape=cylinder3;whiteSpace=wrap;html=1;boundedLbl=1;backgroundOutline=1;size=15;fillColor=#A8DADC;strokeColor=#457B9D;fontColor=#1D3557;" parent="v9gRxfP-HKsxjnFTEKJX-53" vertex="1">
          <mxGeometry x="10" y="10" width="60" height="80" as="geometry" />
        </mxCell>
        <mxCell id="v9gRxfP-HKsxjnFTEKJX-48" value="" style="shape=cylinder3;whiteSpace=wrap;html=1;boundedLbl=1;backgroundOutline=1;size=15;fillColor=#A8DADC;strokeColor=#457B9D;fontColor=#1D3557;" parent="v9gRxfP-HKsxjnFTEKJX-53" vertex="1">
          <mxGeometry x="20" y="20" width="60" height="80" as="geometry" />
        </mxCell>
        <mxCell id="v9gRxfP-HKsxjnFTEKJX-49" value="" style="shape=cylinder3;whiteSpace=wrap;html=1;boundedLbl=1;backgroundOutline=1;size=15;fillColor=#A8DADC;strokeColor=#457B9D;fontColor=#1D3557;" parent="v9gRxfP-HKsxjnFTEKJX-53" vertex="1">
          <mxGeometry x="30" y="30" width="60" height="80" as="geometry" />
        </mxCell>
        <mxCell id="v9gRxfP-HKsxjnFTEKJX-50" value="" style="shape=cylinder3;whiteSpace=wrap;html=1;boundedLbl=1;backgroundOutline=1;size=15;fillColor=#A8DADC;strokeColor=#457B9D;fontColor=#1D3557;" parent="v9gRxfP-HKsxjnFTEKJX-53" vertex="1">
          <mxGeometry x="40" y="40" width="60" height="80" as="geometry" />
        </mxCell>
        <mxCell id="v9gRxfP-HKsxjnFTEKJX-51" value="dn" style="shape=cylinder3;whiteSpace=wrap;html=1;boundedLbl=1;backgroundOutline=1;size=15;fillColor=#A8DADC;strokeColor=#457B9D;fontColor=#1D3557;" parent="v9gRxfP-HKsxjnFTEKJX-53" vertex="1">
          <mxGeometry x="50" y="50" width="60" height="80" as="geometry" />
        </mxCell>
        <mxCell id="v9gRxfP-HKsxjnFTEKJX-83" value="HDFS&amp;nbsp;联邦&amp;nbsp;集群架构说明&lt;br&gt;ambari(原有架构）&lt;br&gt;ambari2(新扩架构)" style="shape=note;strokeWidth=2;fontSize=14;size=20;whiteSpace=wrap;html=1;fillColor=#fff2cc;strokeColor=#d6b656;fontColor=#666600;rounded=0;labelBackgroundColor=none;sketch=0;" parent="1" vertex="1">
          <mxGeometry x="80" y="-180" width="510" height="80" as="geometry" />
        </mxCell>
        <mxCell id="hNwEJR6aLsFTi0P1yOYz-1" value="ambari1&lt;br&gt;统一kerberos&amp;nbsp;认证，&lt;br&gt;ranger权限管理，&lt;br&gt;ns互访" style="rounded=0;whiteSpace=wrap;html=1;sketch=0;strokeColor=#82b366;fillColor=#d5e8d4;align=center;verticalAlign=top;labelPosition=center;verticalLabelPosition=middle;labelBackgroundColor=none;horizontal=1;" vertex="1" parent="1">
          <mxGeometry x="80" y="-90" width="200" height="230" as="geometry" />
        </mxCell>
        <mxCell id="hNwEJR6aLsFTi0P1yOYz-9" style="edgeStyle=orthogonalEdgeStyle;rounded=0;orthogonalLoop=1;jettySize=auto;html=1;exitX=1;exitY=0.5;exitDx=0;exitDy=0;entryX=0;entryY=0.483;entryDx=0;entryDy=0;entryPerimeter=0;" edge="1" parent="1" source="hNwEJR6aLsFTi0P1yOYz-2" target="v9gRxfP-HKsxjnFTEKJX-4">
          <mxGeometry relative="1" as="geometry" />
        </mxCell>
        <mxCell id="hNwEJR6aLsFTi0P1yOYz-2" value="ns-cluster02" style="rounded=1;whiteSpace=wrap;html=1;fillColor=#A8DADC;strokeColor=#457B9D;fontColor=#1D3557;" vertex="1" parent="1">
          <mxGeometry x="125" y="60" width="120" height="60" as="geometry" />
        </mxCell>
        <mxCell id="hNwEJR6aLsFTi0P1yOYz-8" style="edgeStyle=orthogonalEdgeStyle;rounded=0;orthogonalLoop=1;jettySize=auto;html=1;entryX=-0.006;entryY=0.124;entryDx=0;entryDy=0;entryPerimeter=0;" edge="1" parent="1" source="hNwEJR6aLsFTi0P1yOYz-3" target="v9gRxfP-HKsxjnFTEKJX-4">
          <mxGeometry relative="1" as="geometry" />
        </mxCell>
        <mxCell id="hNwEJR6aLsFTi0P1yOYz-3" value="ns-cluster01" style="rounded=1;whiteSpace=wrap;html=1;fillColor=#A8DADC;strokeColor=#457B9D;fontColor=#1D3557;" vertex="1" parent="1">
          <mxGeometry x="125" y="-20" width="120" height="60" as="geometry" />
        </mxCell>
      </root>
    </mxGraphModel>
  </diagram>
</mxfile>
